<svg version="1.1" xmlns="http://www.w3.org/2000/svg" xmlns:xlink="http://www.w3.org/1999/xlink" width="102.08131" height="166.81158" viewBox="0,0,102.08131,166.81158"><g transform="translate(-189.33434,-96.59421)"><g data-paper-data="{&quot;isPaintingLayer&quot;:true}" fill-rule="nonzero" stroke-linejoin="miter" stroke-miterlimit="10" stroke-dasharray="" stroke-dashoffset="0" style="mix-blend-mode: normal"><g stroke="none" stroke-width="0.5" stroke-linecap="butt"><path d="M239.80419,218.41085c0,0 -25.82237,0.6076 -42.14205,0.5048c-7.32497,-0.04614 -10.94195,-11.18057 -6.16666,-16c1.86177,-1.87897 3.96587,-2.12921 6.5,-2.16666c2.37597,-0.03511 8.47868,0.2 8.47868,0.2c0,0 7.02025,-0.76923 6.42132,4.15c0.05553,4.09965 -6.05,3.35 -6.05,3.35c0,0 -6.0423,-0.21769 -8.38835,-0.2c-1.22437,0.00924 -1.79195,1.97344 -0.7553,2.625c0.6847,0.43035 3.14033,0.54166 3.14033,0.54166l36.38992,-0.31514z" fill="#ff9400"/><path d="M206.55107,200.95448c0,0 7.02025,-0.76923 6.42132,4.15c0.05553,4.09965 -6.05,3.35 -6.05,3.35c0,0 -0.08399,-0.00303 -0.23602,-0.00834c1.29742,-0.76055 2.20145,-2.54378 0.89603,-3.90395c-0.69832,-0.72761 -1.85301,-0.82301 -2.38122,-1.7244c-0.36161,-0.67891 -0.34052,-1.3376 -0.08658,-1.915c0.86335,0.02962 1.43647,0.0517 1.43647,0.0517z" fill="#ffffff"/></g><g fill="#ff9400" stroke="none" stroke-width="0.5" stroke-linecap="butt"><path d="M263.46871,173.38904c0,0 0.33588,11.79442 0.5255,24.1228c-1.08658,0.05601 -2.17316,0.11202 -3.25974,0.16803c-2.73397,0.14093 -5.46792,0.28185 -8.20189,0.42278c-0.02938,-10.09368 0.24398,-24.21928 0.24398,-24.21928z"/><path d="M264.12041,211.42197c-0.2722,2.53336 0.50971,5.30025 -0.59705,7.5453c-1.94637,3.94821 -8.20494,3.03668 -9.49695,-1.17133c-1.05215,-3.4268 -1.2675,-7.90295 -1.28653,-11.59345c-0.13227,-1.56091 -0.19076,-4.67709 -0.20558,-8.39926c2.74197,-0.14134 5.48394,-0.28267 8.22591,-0.42401c1.08054,-0.0557 2.16108,-0.11139 3.24162,-0.16709c0.07388,4.91295 0.12355,9.88639 0.11859,14.20985z"/></g><g fill="#ff7a00" stroke="none" stroke-width="0.5" stroke-linecap="butt"><path d="M258.97955,248.21432c0,0 4.28853,-0.69131 7.6129,1.43791c3.32437,2.12922 2.63179,3.05588 1.97685,4.70421c-2.78029,6.9973 -22.77578,5.18875 -21.94684,-2.11953c0.73413,-6.47242 0.9952,-14.81562 1.04015,-22.5949c2.38259,0.02677 4.76516,0.05354 7.14775,0.08031c1.32227,0.01486 2.71014,0.03045 4.10236,0.04609z"/><path d="M258.83895,210.00992l0.07195,19.85843c-1.36498,-0.01533 -2.72995,-0.03067 -4.09492,-0.04601c-2.38359,-0.02678 -4.76718,-0.05357 -7.15077,-0.08035c0.05546,-12.01377 -0.39464,-22.5484 -0.39464,-22.5484z"/></g><g fill="#ff9400" stroke="none" stroke-width="0.5" stroke-linecap="butt"><path d="M242.024,252.85876c0,0 4.28852,-0.69131 7.6129,1.43791c3.32438,2.12922 2.63179,3.05588 1.97684,4.70422c-2.78029,6.9973 -22.77577,5.18875 -21.94684,-2.11953c0.73413,-6.47242 0.99519,-14.81562 1.04015,-22.59491c2.38259,0.02677 4.76516,0.05354 7.14775,0.08031c1.32227,0.01486 2.71013,0.03045 4.10236,0.0461z"/><path d="M241.88339,214.65436l0.07196,19.85843c-1.36497,-0.01533 -2.72995,-0.03068 -4.09493,-0.04601c-2.38359,-0.02678 -4.76718,-0.05357 -7.15077,-0.08035c0.05546,-12.01377 -0.39464,-22.5484 -0.39464,-22.5484z"/></g><path d="M263.72919,188.14277c0,16.54147 -0.57465,29.81429 -19.27188,29.95097c-17.60698,0.12871 -19.02947,-13.40951 -19.02947,-29.95097c0,-16.54146 -1.37255,-29.66196 19.15067,-30.29326c20.76481,-0.63873 19.15067,13.7518 19.15067,30.29326z" data-paper-data="{&quot;index&quot;:null}" fill="#ff9400" stroke="#001026" stroke-width="0" stroke-linecap="butt"/><path d="M259.78735,189.63068c0.08383,12.0148 -5.14986,13.16667 -11.50253,13.16667c-6.35268,0 -11.50253,-5.89492 -11.50253,-13.16667c0,-7.27175 5.14986,-13.16667 11.50253,-13.16667c6.35268,0 11.41436,0.5288 11.50253,13.16667z" data-paper-data="{&quot;index&quot;:null}" fill="#ffffff" stroke="#001026" stroke-width="0" stroke-linecap="butt"/><path d="M290.43469,147.82372l-6.94053,-1.71781" data-paper-data="{&quot;index&quot;:null}" fill="none" stroke="#001026" stroke-width="1.5" stroke-linecap="round"/><path d="M290.66566,138.65792l-6.94053,3.8139" data-paper-data="{&quot;index&quot;:null}" fill="none" stroke="#001026" stroke-width="1.5" stroke-linecap="round"/><g fill="#ff7a00" stroke="#001026" stroke-width="0" stroke-linecap="butt"><path d="M248.63756,107.10857c0,5.3565 -4.36267,9.6988 -9.74429,9.6988c-5.38162,0 -9.74429,-4.3423 -9.74429,-9.6988c0,-5.3565 4.36267,-9.6988 9.74429,-9.6988c5.38162,0 9.74429,4.3423 9.74429,9.6988z"/><path d="M220.85691,106.29301c0,5.35649 -1.36266,16.21183 -6.74429,16.21183c-5.38163,0 -12.74429,-10.85533 -12.74429,-16.21183c0,-5.35649 4.36267,-9.6988 9.74429,-9.6988c5.38163,0 9.74429,4.3423 9.74429,9.6988z"/><path d="M216.47346,98.2429c0,0 3.93223,2.24186 9.5274,2.24186c4.63208,0 7.7804,-1.68469 7.7804,-1.68469l0.95019,17.06979c0,0 -4.36619,-3.29719 -8.96136,-3.29719c-4.63208,0 -6.93783,5.81248 -6.93783,5.81248z"/></g><path d="M273.92593,135.82986c0,14.98072 -15.93054,27.125 -35.58185,27.125c-19.65131,0 -35.49075,-8.14504 -35.3508,-23.125c0.23105,-24.73072 15.69949,-31.125 35.3508,-31.125c19.65131,0 35.58185,12.14428 35.58185,27.125z" fill="#ff9400" stroke="#001026" stroke-width="0" stroke-linecap="butt"/><path d="M231.18759,126.81416c0,-1.38071 1.11929,-2.5 2.5,-2.5c1.38071,0 2.5,1.11929 2.5,2.5c0,1.38071 -1.11929,2.5 -2.5,2.5c-1.38071,0 -2.5,-1.11929 -2.5,-2.5z" fill="#001026" stroke="none" stroke-width="0.5" stroke-linecap="butt"/><path d="M256.18759,127.06416c0,-1.38071 1.11929,-2.5 2.5,-2.5c1.38071,0 2.5,1.11929 2.5,2.5c0,1.38071 -1.11929,2.5 -2.5,2.5c-1.38071,0 -2.5,-1.11929 -2.5,-2.5z" fill="#001026" stroke="none" stroke-width="0.5" stroke-linecap="butt"/><path d="M210.41568,147.10591l-6.94053,1.71781" data-paper-data="{&quot;index&quot;:null}" fill="none" stroke="#001026" stroke-width="1.5" stroke-linecap="round"/><path d="M204.24416,139.65792l6.94053,3.8139" data-paper-data="{&quot;index&quot;:null}" fill="none" stroke="#001026" stroke-width="1.5" stroke-linecap="round"/><path d="M285.49372,146.32986c0.30083,16.24912 -16.6359,17.0844 -37.94555,17.25c-32.16959,0.25 -39.08551,-5.99923 -38.58551,-16.75c0.42977,-9.24078 17.77532,-13.5 39.08551,-13.5c21.31019,0 37.20023,-0.25047 37.44555,13z" fill="#ffffff" stroke="#001026" stroke-width="0" stroke-linecap="butt"/><path d="M264.28364,152.42525c0,0 -15.56647,0.15327 -27.36893,-0.01199c-6.57381,-0.20698 -3.90053,-6.87318 -3.90053,-6.87318" fill="none" stroke="#001026" stroke-width="2" stroke-linecap="round"/><path d="M245.70584,143.36736c0,-1.08386 -0.11045,-1.96965 3.5625,-1.9625c3.66459,0.00713 3.5625,0.87864 3.5625,1.9625c0,1.08386 -1.59499,1.9625 -3.5625,1.9625c-1.96751,0 -3.5625,-0.87864 -3.5625,-1.9625z" fill="#001026" stroke="#001026" stroke-width="0" stroke-linecap="butt"/><path d="M249.26833,144.77151v7.3" fill="none" stroke="#001026" stroke-width="2" stroke-linecap="round"/><g fill="#ff7a00" stroke="none" stroke-width="0.5" stroke-linecap="butt"><path d="M236.26871,176.18904c0,0 0.33588,11.79442 0.52551,24.1228c-1.08658,0.05601 -2.17316,0.11202 -3.25975,0.16803c-2.73396,0.14093 -5.46793,0.28185 -8.20189,0.42278c-0.02939,-10.09368 0.24398,-24.21929 0.24398,-24.21929z"/><path d="M236.92041,214.22197c-0.2722,2.53335 0.50971,5.30025 -0.59705,7.5453c-1.94637,3.94821 -8.20494,3.03668 -9.49695,-1.17133c-1.05215,-3.42681 -1.2675,-7.90295 -1.28653,-11.59345c-0.13228,-1.56091 -0.19076,-4.67709 -0.20558,-8.39926c2.74197,-0.14134 5.48394,-0.28268 8.22591,-0.42402c1.08054,-0.0557 2.16108,-0.1114 3.24162,-0.16709c0.07388,4.91295 0.12355,9.8864 0.11859,14.20986z"/></g></g></g></svg>